# xmcd
#
# Track frame offsets: 
#        187
#        27517
#        58717
#        80705
#        92827
#        114025
#        131322
#        167917
#        193725
#        222692
#        239292
#        262330
#        277937
#
# Disc length: 4033 seconds
#
# Revision: 3
# Processed by: cddbd v1.5.2PL0 Copyright (c) Steve Scherf et al.
# Submitted via: ExactAudioCopy v0.95b3
#
DISCID=c00fbf0d
DTITLE=Various Artist - Freedom Jazz Dance
DYEAR=1992
DGENRE=Jazz
TTITLE0=GENE AMMONS - THE PEOPLE'S CHOICE
TTITLE1=BROTHER JACK McDUFF - JIVE SAMBA
TTITLE2=ART BLAKEY - ALONG CAME BETTY
TTITLE3=MONGO SANTAMARIA - SWEET 'TATER PIE
TTITLE4=CHARLES EARLAND - MILESTONES
TTITLE5=WOODY HERMAN - FREEDOM JAZZ DANCE
TTITLE6=GENE AMMONS - JUG EYES
TTITLE7=CAL TJADER - MAMBERO
TTITLE8=NTU' WITH GARY BARTZ - SINGERELA
TTITLE9=BILL SUMMERS - COME INTO MY LIFE
TTITLE10=GENE AMMONS - BRASS WIND
TTITLE11=JOHNNY WATSON - I DON'T WANT TO BE A LONE RANGER
TTITLE12=NATURAL ESSENCE - THE OTHER SIDE OF TOWN
EXTD=YEAR: 1992
EXTT0=
EXTT1=
EXTT2=
EXTT3=
EXTT4=
EXTT5=
EXTT6=
EXTT7=
EXTT8=
EXTT9=
EXTT10=
EXTT11=
EXTT12=
PLAYORDER=
